# xmcd
#
# Track frame offsets: 
#        150
#        14335
#        31485
#        47227
#        63490
#        80167
#        92252
#        109362
#        121760
#        141032
#
# Disc length: 2082 seconds
#
# Revision: 2
# Processed by: cddbd v1.5.2PL0 Copyright (c) Steve Scherf et al.
# Submitted via: ExactAudioCopyFreeDBPlugin 1.0
#
DISCID=8208200a
DTITLE=Joe Diffie - Regular Joe
DYEAR=1992
DGENRE=Country
TTITLE0=Startin' Over Blues
TTITLE1=I Just Don't Know
TTITLE2=Net Thing Smokin'
TTITLE3=Ain't That Bad Enough
TTITLE4=Ships That Don't Come In
TTITLE5=Just A Regular Joe
TTITLE6=Is It Cold In Here
TTITLE7=Back to Back Heartaches
TTITLE8=You Made Me What I Am
TTITLE9=Goodnight Sweetheart
EXTD=
EXTT0=
EXTT1=
EXTT2=
EXTT3=
EXTT4=
EXTT5=
EXTT6=
EXTT7=
EXTT8=
EXTT9=
PLAYORDER=
